<?xml version="1.0" encoding="iso-8859-1"?>
<!-- Generator: Adobe Illustrator 19.0.0, SVG Export Plug-In . SVG Version: 6.00 Build 0)  -->
<svg version="1.1" id="Layer_1" xmlns="http://www.w3.org/2000/svg" xmlns:xlink="http://www.w3.org/1999/xlink" x="0px" y="0px"
	 viewBox="0 0 512 512" style="enable-background:new 0 0 512 512;" xml:space="preserve">
<g>
	<g>
		<path d="M481,106c0-21.453-14.89-39.042-34.376-43.738c-2.113-14.723-8.736-28.682-19.094-39.707
			C414.246,8.415,395.987,0,375.883,0H136.117C116.223,0,97.904,8.256,84.47,22.556C74.112,33.581,67.489,47.539,65.376,62.262
			C45.858,66.965,31,84.577,31,106c0,20.923,14.195,38.29,33.177,43.426C62.135,154.559,61,160.148,61,166
			c0,14.875,4.371,28.74,11.87,40.414L76.942,272H76c-8.284,0-15,6.716-15,15s6.716,15,15,15h2.805l2.783,44.818
			C68.985,357.825,61,373.993,61,392c0,26.733,17.578,49.431,41.781,57.163l4.804,13.307C118.281,492.095,146.63,512,178.127,512
			h155.745c31.498,0,59.847-19.905,70.543-49.53l4.804-13.307C433.422,441.431,451,418.733,451,392
			c0-18.008-7.985-34.175-20.588-45.183L433.195,302H436c8.284,0,15-6.716,15-15s-6.716-15-15-15h-0.943l4.079-65.701
			c7.471-11.648,11.836-25.47,11.863-40.299c0-5.852-1.135-11.441-3.177-16.574C466.784,144.296,481,126.948,481,106z M323.977,30
			L256,59.636L188.022,30H323.977z M106.334,43.097c4.066-4.328,8.828-7.651,14.02-9.871L250.005,89.75
			c3.821,1.666,8.167,1.667,11.989,0l129.651-56.524c5.192,2.22,9.955,5.543,14.021,9.871c6.127,6.522,10.037,14.768,11.27,23.447
			L256,120.188L95.064,66.543C96.297,57.864,100.207,49.619,106.334,43.097z M256,325.787l-42.359-42.359l32.224-79.342
			c3.748-4.39,7.142-9.089,10.135-14.057c2.994,4.968,6.388,9.667,10.135,14.057l32.224,79.342L256,325.787z M271,362h30v60h-30V362
			z M166,211h-30c-24.813,0-45-20.187-45-45c0-8.271,6.729-15.1,15-15.1h133.493C232.524,185.091,202.219,211,166,211z M76,121
			c-8.291,0-15-6.708-15-15c0-7.634,5.678-13.885,12.971-14.865L163.566,121C146.678,121,92.49,121,76,121z M121,422
			c-16.542,0-30-13.458-30-30s13.458-30,30-30V422z M121,332c-3.485,0-6.896,0.315-10.219,0.889L108.863,302H136
			c8.284,0,15-6.716,15-15s-6.716-15-15-15h-29l-2.353-37.894C114.194,238.519,124.81,241,136,241h30
			c12.238,0,23.99-2.112,34.92-5.978l-18.818,46.333c-2.269,5.586-0.973,11.988,3.291,16.251L219.787,332H121z M241,362v60h-30v-60
			H241z M181,362v60h-30v-60H181z M376.198,452.282C369.78,470.057,352.771,482,333.872,482H178.127
			c-18.898,0-35.908-11.943-42.326-29.718L135.7,452h240.6L376.198,452.282z M331,422v-60h30v60H331z M292.213,332l34.394-34.394
			c4.264-4.263,5.56-10.665,3.291-16.251l-18.818-46.333C322.01,238.888,333.762,241,346,241h29.889
			c11.23,0,21.887-2.499,31.468-6.943L405,272h-29c-8.284,0-15,6.716-15,15s6.716,15,15,15h27.138l-1.918,30.889
			C397.896,332.315,394.485,332,391,332H292.213z M391,422v-60c16.542,0,30,13.458,30,30S407.542,422,391,422z M375.889,211H346
			c-36.219,0-66.523-25.809-73.493-60H406c8.271,0,15,6.729,15,14.972C420.954,190.801,400.717,211,375.889,211z M436,121h-30
			h-57.565l89.594-29.865C445.308,92.113,451,98.351,451,106C451,114.291,444.292,121,436,121z"/>
	</g>
</g>
<g>
</g>
<g>
</g>
<g>
</g>
<g>
</g>
<g>
</g>
<g>
</g>
<g>
</g>
<g>
</g>
<g>
</g>
<g>
</g>
<g>
</g>
<g>
</g>
<g>
</g>
<g>
</g>
<g>
</g>
</svg>
